<svg width="139" height="41" viewBox="0 0 139 41" fill="none" xmlns="http://www.w3.org/2000/svg">
<path d="M137.692 36.1659C137.692 38.2976 135.93 40.0243 133.749 40.0243H4.71725C2.53807 40.0243 0.769226 38.2976 0.769226 36.1659V5.39705C0.769226 3.26641 2.53807 1.53369 4.71725 1.53369H133.748C135.93 1.53369 137.691 3.26641 137.691 5.39705L137.692 36.1659Z" fill="black"/>
<path d="M133.333 1.58006C135.708 1.58006 137.64 3.46381 137.64 5.77881V35.7788C137.64 38.0938 135.708 39.9776 133.333 39.9776H5.12821C2.75385 39.9776 0.821795 38.0938 0.821795 35.7788V5.77881C0.821795 3.46381 2.75385 1.58006 5.12821 1.58006H133.333ZM133.333 0.778811H5.12821C2.30897 0.778811 0 3.03006 0 5.77881V35.7788C0 38.5276 2.30897 40.7788 5.12821 40.7788H133.333C136.153 40.7788 138.462 38.5276 138.462 35.7788V5.77881C138.462 3.03006 136.153 0.778811 133.333 0.778811Z" fill="#A6A6A6"/>
<path d="M30.9005 20.5628C30.8708 17.3398 33.6072 15.7718 33.7323 15.6988C32.1826 13.4958 29.7805 13.1948 28.9364 13.1708C26.919 12.9638 24.9621 14.3478 23.9344 14.3478C22.8862 14.3478 21.3036 13.1908 19.598 13.2248C17.4031 13.2578 15.3498 14.4968 14.2236 16.4208C11.8995 20.3438 13.6329 26.1088 15.8595 29.2798C16.9734 30.8328 18.2749 32.5668 19.9785 32.5058C21.6452 32.4388 22.2677 31.4698 24.279 31.4698C26.2718 31.4698 26.8564 32.5058 28.5939 32.4668C30.3826 32.4388 31.5087 30.9068 32.5836 29.3398C33.8708 27.5598 34.3877 25.8068 34.4082 25.7168C34.3662 25.7028 30.9344 24.4258 30.9005 20.5628Z" fill="white"/>
<path d="M27.6185 11.0848C28.5149 9.99185 29.1282 8.50485 28.958 6.99585C27.6605 7.05185 26.038 7.87085 25.1036 8.93985C24.277 9.88185 23.5385 11.4258 23.7293 12.8778C25.1867 12.9838 26.6831 12.1608 27.6185 11.0848Z" fill="white"/>
<path d="M55.0205 32.2829H52.6913L51.4154 28.3739H46.9805L45.7651 32.2829H43.4974L47.8913 18.9749H50.6051L55.0205 32.2829ZM51.0308 26.7339L49.8769 23.2589C49.7549 22.9039 49.5262 22.0679 49.1887 20.7519H49.1477C49.0133 21.3179 48.7969 22.1539 48.4995 23.2589L47.3662 26.7339H51.0308Z" fill="white"/>
<path d="M66.32 27.367C66.32 28.999 65.8677 30.289 64.9631 31.236C64.1528 32.079 63.1467 32.5 61.9456 32.5C60.6492 32.5 59.7179 32.046 59.1508 31.138H59.1097V36.193H56.9231V25.846C56.9231 24.82 56.8954 23.767 56.842 22.687H58.7651L58.8872 24.208H58.9282C59.6574 23.062 60.7641 22.49 62.2492 22.49C63.4102 22.49 64.3795 22.937 65.1549 23.832C65.9323 24.728 66.32 25.906 66.32 27.367ZM64.0923 27.445C64.0923 26.511 63.8769 25.741 63.4441 25.135C62.9713 24.503 62.3364 24.187 61.5405 24.187C61.001 24.187 60.5108 24.363 60.0728 24.71C59.6338 25.06 59.3467 25.517 59.2123 26.083C59.1446 26.347 59.1108 26.563 59.1108 26.733V28.333C59.1108 29.031 59.3302 29.62 59.7692 30.101C60.2082 30.582 60.7785 30.822 61.48 30.822C62.3036 30.822 62.9446 30.512 63.4031 29.894C63.8626 29.275 64.0923 28.459 64.0923 27.445Z" fill="white"/>
<path d="M77.6399 27.367C77.6399 28.999 77.1876 30.289 76.282 31.236C75.4728 32.079 74.4666 32.5 73.2656 32.5C71.9692 32.5 71.0379 32.046 70.4717 31.138H70.4307V36.193H68.2441V25.846C68.2441 24.82 68.2164 23.767 68.163 22.687H70.0861L70.2082 24.208H70.2492C70.9774 23.062 72.0841 22.49 73.5702 22.49C74.7302 22.49 75.6994 22.937 76.4769 23.832C77.2512 24.728 77.6399 25.906 77.6399 27.367ZM75.4123 27.445C75.4123 26.511 75.1958 25.741 74.763 25.135C74.2902 24.503 73.6574 24.187 72.8605 24.187C72.32 24.187 71.8307 24.363 71.3917 24.71C70.9528 25.06 70.6666 25.517 70.5323 26.083C70.4656 26.347 70.4307 26.563 70.4307 26.733V28.333C70.4307 29.031 70.6502 29.62 71.0871 30.101C71.5261 30.581 72.0964 30.822 72.8 30.822C73.6235 30.822 74.2646 30.512 74.723 29.894C75.1825 29.275 75.4123 28.459 75.4123 27.445Z" fill="white"/>
<path d="M90.2964 28.551C90.2964 29.683 89.8934 30.604 89.0841 31.315C88.1949 32.092 86.9569 32.48 85.3662 32.48C83.8975 32.48 82.72 32.204 81.8287 31.651L82.3354 29.874C83.2954 30.44 84.3487 30.724 85.4964 30.724C86.32 30.724 86.961 30.542 87.4216 30.18C87.88 29.818 88.1087 29.332 88.1087 28.726C88.1087 28.186 87.92 27.731 87.5416 27.362C87.1651 26.993 86.5364 26.65 85.6585 26.333C83.2687 25.464 82.0749 24.191 82.0749 22.517C82.0749 21.423 82.4934 20.526 83.3313 19.828C84.1662 19.129 85.28 18.78 86.6728 18.78C87.9149 18.78 88.9467 18.991 89.7703 19.412L89.2236 21.15C88.4544 20.742 87.5846 20.538 86.6113 20.538C85.8421 20.538 85.241 20.723 84.8103 21.091C84.4462 21.42 84.2636 21.821 84.2636 22.296C84.2636 22.822 84.4718 23.257 84.8903 23.599C85.2544 23.915 85.9159 24.257 86.8759 24.626C88.0503 25.087 88.9128 25.626 89.4677 26.244C90.0205 26.86 90.2964 27.631 90.2964 28.551Z" fill="white"/>
<path d="M97.5261 24.2869H95.1159V28.9459C95.1159 30.1309 95.5405 30.7229 96.3918 30.7229C96.7825 30.7229 97.1066 30.6899 97.3631 30.6239L97.4236 32.2429C96.9928 32.3999 96.4256 32.4789 95.7231 32.4789C94.8595 32.4789 94.1846 32.2219 93.6974 31.7089C93.2123 31.1949 92.9682 30.3329 92.9682 29.1219V24.2849H91.5323V22.6849H92.9682V20.9279L95.1159 20.2959V22.6849H97.5261V24.2869Z" fill="white"/>
<path d="M108.401 27.406C108.401 28.881 107.968 30.092 107.105 31.039C106.199 32.014 104.997 32.5 103.498 32.5C102.054 32.5 100.905 32.033 100.047 31.099C99.1897 30.165 98.761 28.986 98.761 27.565C98.761 26.078 99.202 24.86 100.087 23.913C100.97 22.965 102.162 22.491 103.66 22.491C105.105 22.491 106.267 22.958 107.144 23.893C107.983 24.8 108.401 25.971 108.401 27.406ZM106.132 27.475C106.132 26.59 105.938 25.831 105.546 25.198C105.087 24.432 104.432 24.05 103.583 24.05C102.704 24.05 102.036 24.433 101.577 25.198C101.185 25.832 100.991 26.603 100.991 27.515C100.991 28.4 101.185 29.159 101.577 29.791C102.05 30.557 102.711 30.939 103.563 30.939C104.398 30.939 105.053 30.549 105.526 29.771C105.929 29.126 106.132 28.359 106.132 27.475Z" fill="white"/>
<path d="M115.509 24.562C115.292 24.523 115.062 24.503 114.819 24.503C114.05 24.503 113.455 24.786 113.037 25.353C112.673 25.853 112.49 26.485 112.49 27.248V32.283H110.305L110.325 25.709C110.325 24.603 110.297 23.596 110.243 22.688H112.148L112.228 24.524H112.288C112.519 23.893 112.883 23.385 113.382 23.004C113.869 22.661 114.395 22.49 114.962 22.49C115.164 22.49 115.347 22.504 115.509 22.529V24.562Z" fill="white"/>
<path d="M125.288 27.0309C125.288 27.4129 125.263 27.7349 125.208 27.9979H118.648C118.674 28.9459 118.991 29.6709 119.6 30.1709C120.153 30.6179 120.868 30.8419 121.746 30.8419C122.717 30.8419 123.603 30.6909 124.4 30.3879L124.743 31.8679C123.811 32.2639 122.712 32.4609 121.443 32.4609C119.917 32.4609 118.719 32.0229 117.847 31.1479C116.977 30.2729 116.542 29.0979 116.542 27.6239C116.542 26.1769 116.947 24.9719 117.758 24.0109C118.607 22.9849 119.755 22.4719 121.199 22.4719C122.617 22.4719 123.691 22.9849 124.42 24.0109C124.998 24.8259 125.288 25.8339 125.288 27.0309ZM123.203 26.4779C123.217 25.8459 123.075 25.2999 122.778 24.8389C122.4 24.2459 121.818 23.9499 121.036 23.9499C120.321 23.9499 119.739 24.2389 119.295 24.8189C118.931 25.2799 118.715 25.8329 118.648 26.4769H123.203V26.4779Z" fill="white"/>
<path d="M50.3077 10.7875C50.3077 11.9645 49.9456 12.8505 49.2226 13.4455C48.5528 13.9945 47.601 14.2695 46.3682 14.2695C45.7569 14.2695 45.2338 14.2435 44.7959 14.1915V7.76051C45.3672 7.67051 45.9826 7.62451 46.6472 7.62451C47.8215 7.62451 48.7067 7.87351 49.3036 8.37151C49.9723 8.93451 50.3077 9.73951 50.3077 10.7875ZM49.1744 10.8165C49.1744 10.0535 48.9672 9.46851 48.5528 9.06051C48.1385 8.65351 47.5333 8.44951 46.7364 8.44951C46.398 8.44951 46.1097 8.47151 45.8708 8.51751V13.4065C46.0031 13.4265 46.2451 13.4355 46.5969 13.4355C47.4195 13.4355 48.0544 13.2125 48.5015 12.7665C48.9487 12.3205 49.1744 11.6705 49.1744 10.8165Z" fill="white"/>
<path d="M56.317 11.8156C56.317 12.5406 56.1047 13.1346 55.6801 13.6006C55.2349 14.0796 54.6452 14.3186 53.9088 14.3186C53.199 14.3186 52.6339 14.0896 52.2124 13.6296C51.7919 13.1706 51.5816 12.5916 51.5816 11.8936C51.5816 11.1636 51.798 10.5646 52.2329 10.0996C52.6678 9.63461 53.2524 9.40161 53.9888 9.40161C54.6985 9.40161 55.2688 9.63061 55.7006 10.0896C56.1108 10.5356 56.317 11.1116 56.317 11.8156ZM55.2021 11.8496C55.2021 11.4146 55.1057 11.0416 54.9139 10.7306C54.6883 10.3546 54.3672 10.1666 53.9498 10.1666C53.518 10.1666 53.1898 10.3546 52.9642 10.7306C52.7713 11.0416 52.676 11.4206 52.676 11.8686C52.676 12.3036 52.7724 12.6766 52.9642 12.9876C53.197 13.3636 53.5211 13.5516 53.9396 13.5516C54.3498 13.5516 54.6719 13.3606 54.9037 12.9776C55.1026 12.6606 55.2021 12.2846 55.2021 11.8496Z" fill="white"/>
<path d="M64.3743 9.4978L62.8615 14.2118H61.8769L61.2502 12.1648C61.0913 11.6538 60.962 11.1458 60.8615 10.6418H60.842C60.7487 11.1598 60.6195 11.6668 60.4533 12.1648L59.7877 14.2118H58.7918L57.3692 9.4978H58.4738L59.0205 11.7388C59.1528 12.2688 59.2615 12.7738 59.3487 13.2518H59.3682C59.4482 12.8578 59.5805 12.3558 59.7671 11.7488L60.4533 9.4988H61.3292L61.9866 11.7008C62.1456 12.2378 62.2748 12.7548 62.3743 13.2528H62.4041C62.4769 12.7678 62.5866 12.2508 62.7323 11.7008L63.3189 9.4988H64.3743V9.4978Z" fill="white"/>
<path d="M69.9467 14.2114H68.8719V11.5114C68.8719 10.6794 68.5478 10.2634 67.8975 10.2634C67.5785 10.2634 67.3211 10.3774 67.1211 10.6064C66.9232 10.8354 66.8226 11.1054 66.8226 11.4144V14.2104H65.7478V10.8444C65.7478 10.4304 65.7344 9.98144 65.7088 9.49544H66.6534L66.7037 10.2324H66.7334C66.8585 10.0034 67.0452 9.81444 67.2903 9.66344C67.5816 9.48744 67.9078 9.39844 68.2647 9.39844C68.716 9.39844 69.0914 9.54044 69.3898 9.82544C69.7611 10.1744 69.9467 10.6954 69.9467 11.3874V14.2114Z" fill="white"/>
<path d="M72.9108 14.2115H71.8369V7.33447H72.9108V14.2115Z" fill="white"/>
<path d="M79.239 11.8156C79.239 12.5406 79.0267 13.1346 78.6021 13.6006C78.1569 14.0796 77.5662 14.3186 76.8308 14.3186C76.12 14.3186 75.5549 14.0896 75.1344 13.6296C74.7139 13.1706 74.5036 12.5916 74.5036 11.8936C74.5036 11.1636 74.72 10.5646 75.1549 10.0996C75.5898 9.63461 76.1744 9.40161 76.9098 9.40161C77.6205 9.40161 78.1898 9.63061 78.6226 10.0896C79.0328 10.5356 79.239 11.1116 79.239 11.8156ZM78.1231 11.8496C78.1231 11.4146 78.0267 11.0416 77.8349 10.7306C77.6103 10.3546 77.2882 10.1666 76.8718 10.1666C76.439 10.1666 76.1108 10.3546 75.8862 10.7306C75.6933 11.0416 75.598 11.4206 75.598 11.8686C75.598 12.3036 75.6944 12.6766 75.8862 12.9876C76.119 13.3636 76.4431 13.5516 76.8616 13.5516C77.2718 13.5516 77.5928 13.3606 77.8246 12.9776C78.0246 12.6606 78.1231 12.2846 78.1231 11.8496Z" fill="white"/>
<path d="M84.441 14.2116H83.4759L83.3959 13.6686H83.3662C83.0359 14.1016 82.5651 14.3186 81.9539 14.3186C81.4974 14.3186 81.1282 14.1756 80.8503 13.8916C80.598 13.6336 80.4718 13.3126 80.4718 12.9316C80.4718 12.3556 80.718 11.9166 81.2133 11.6126C81.7077 11.3086 82.4031 11.1596 83.2985 11.1666V11.0786C83.2985 10.4576 82.9641 10.1476 82.2944 10.1476C81.8174 10.1476 81.3969 10.2646 81.0339 10.4966L80.8154 9.80861C81.2646 9.53761 81.8195 9.40161 82.4739 9.40161C83.7374 9.40161 84.3713 10.0516 84.3713 11.3516V13.0876C84.3713 13.5586 84.3949 13.9336 84.441 14.2116ZM83.3251 12.5916V11.8646C82.1395 11.8446 81.5467 12.1616 81.5467 12.8146C81.5467 13.0606 81.6144 13.2446 81.7528 13.3676C81.8913 13.4906 82.0677 13.5516 82.278 13.5516C82.5139 13.5516 82.7344 13.4786 82.9354 13.3336C83.1374 13.1876 83.2615 13.0026 83.3077 12.7756C83.319 12.7246 83.3251 12.6626 83.3251 12.5916Z" fill="white"/>
<path d="M90.5487 14.2115H89.5949L89.5446 13.4545H89.5149C89.2103 14.0305 88.6913 14.3185 87.9621 14.3185C87.3795 14.3185 86.8944 14.0955 86.5098 13.6495C86.1251 13.2035 85.9333 12.6245 85.9333 11.9135C85.9333 11.1505 86.1416 10.5325 86.56 10.0605C86.9651 9.62047 87.4615 9.40047 88.0523 9.40047C88.7015 9.40047 89.1559 9.61347 89.4144 10.0405H89.4349V7.33447H90.5108V12.9415C90.5108 13.4005 90.5231 13.8235 90.5487 14.2115ZM89.4349 12.2235V11.4375C89.4349 11.3015 89.4246 11.1915 89.4051 11.1075C89.3446 10.8555 89.2144 10.6435 89.0164 10.4725C88.8164 10.3015 88.5754 10.2155 88.2974 10.2155C87.8964 10.2155 87.5826 10.3705 87.3518 10.6815C87.1231 10.9925 87.0072 11.3895 87.0072 11.8745C87.0072 12.3405 87.1169 12.7185 87.3374 13.0095C87.5703 13.3195 87.8841 13.4745 88.2769 13.4745C88.6298 13.4745 88.9118 13.3455 89.1262 13.0865C89.3333 12.8475 89.4349 12.5595 89.4349 12.2235Z" fill="white"/>
<path d="M99.7416 11.8156C99.7416 12.5406 99.5293 13.1346 99.1047 13.6006C98.6596 14.0796 98.0708 14.3186 97.3334 14.3186C96.6247 14.3186 96.0596 14.0896 95.637 13.6296C95.2165 13.1706 95.0062 12.5916 95.0062 11.8936C95.0062 11.1636 95.2226 10.5646 95.6575 10.0996C96.0924 9.63461 96.677 9.40161 97.4144 9.40161C98.1231 9.40161 98.6944 9.63061 99.1252 10.0896C99.5355 10.5356 99.7416 11.1116 99.7416 11.8156ZM98.6278 11.8496C98.6278 11.4146 98.5313 11.0416 98.3396 10.7306C98.1129 10.3546 97.7929 10.1666 97.3744 10.1666C96.9437 10.1666 96.6155 10.3546 96.3888 10.7306C96.196 11.0416 96.1006 11.4206 96.1006 11.8686C96.1006 12.3036 96.197 12.6766 96.3888 12.9876C96.6216 13.3636 96.9457 13.5516 97.3642 13.5516C97.7744 13.5516 98.0975 13.3606 98.3293 12.9776C98.5273 12.6606 98.6278 12.2846 98.6278 11.8496Z" fill="white"/>
<path d="M105.521 14.2114H104.447V11.5114C104.447 10.6794 104.123 10.2634 103.472 10.2634C103.153 10.2634 102.895 10.3774 102.696 10.6064C102.497 10.8354 102.398 11.1054 102.398 11.4144V14.2104H101.322V10.8444C101.322 10.4304 101.31 9.98144 101.284 9.49544H102.228L102.278 10.2324H102.308C102.434 10.0034 102.621 9.81444 102.865 9.66344C103.157 9.48744 103.482 9.39844 103.84 9.39844C104.29 9.39844 104.666 9.54044 104.964 9.82544C105.336 10.1744 105.521 10.6954 105.521 11.3874V14.2114Z" fill="white"/>
<path d="M112.755 10.2822H111.571V12.5722C111.571 13.1542 111.782 13.4452 112.198 13.4452C112.391 13.4452 112.551 13.4292 112.677 13.3962L112.705 14.1912C112.492 14.2692 112.213 14.3082 111.87 14.3082C111.445 14.3082 111.115 14.1822 110.876 13.9302C110.636 13.6782 110.517 13.2542 110.517 12.6592V10.2822H109.81V9.49724H110.517V8.63324L111.57 8.32324V9.49624H112.754V10.2822H112.755Z" fill="white"/>
<path d="M118.445 14.2115H117.369V11.5315C117.369 10.6865 117.045 10.2635 116.396 10.2635C115.897 10.2635 115.557 10.5085 115.37 10.9985C115.338 11.1015 115.32 11.2275 115.32 11.3755V14.2105H114.246V7.33447H115.32V10.1755H115.341C115.679 9.65847 116.164 9.40047 116.793 9.40047C117.238 9.40047 117.606 9.54247 117.898 9.82747C118.263 10.1825 118.445 10.7105 118.445 11.4085V14.2115Z" fill="white"/>
<path d="M124.315 11.6316C124.315 11.8196 124.301 11.9776 124.275 12.1066H121.051C121.066 12.5726 121.22 12.9276 121.518 13.1736C121.791 13.3936 122.143 13.5036 122.573 13.5036C123.05 13.5036 123.485 13.4296 123.877 13.2806L124.045 14.0086C123.587 14.2026 123.047 14.2996 122.423 14.2996C121.674 14.2996 121.084 14.0846 120.658 13.6546C120.229 13.2246 120.016 12.6476 120.016 11.9236C120.016 11.2126 120.214 10.6206 120.613 10.1486C121.03 9.64458 121.593 9.39258 122.304 9.39258C122.999 9.39258 123.527 9.64458 123.884 10.1486C124.172 10.5486 124.315 11.0436 124.315 11.6316ZM123.289 11.3606C123.298 11.0496 123.227 10.7816 123.081 10.5556C122.894 10.2646 122.61 10.1186 122.226 10.1186C121.875 10.1186 121.589 10.2606 121.37 10.5456C121.192 10.7726 121.086 11.0436 121.051 11.3606H123.289Z" fill="white"/>
</svg>
