<svg width="21" height="20" viewBox="0 0 21 20" fill="none" xmlns="http://www.w3.org/2000/svg">
<path d="M17.8096 19.2308L0.886533 2.30772C0.461916 1.8831 0.461916 1.19388 0.886532 0.76926C1.31115 0.344644 2.00037 0.344644 2.42499 0.76926L19.348 17.6923C19.7727 18.1169 19.7727 18.8061 19.348 19.2308C18.9234 19.6554 18.2342 19.6554 17.8096 19.2308Z" fill="#222020"/>
<path d="M19.3476 2.3077L2.42451 19.2307C1.99989 19.6554 1.31067 19.6554 0.886051 19.2307C0.461435 18.8061 0.461435 18.1169 0.886051 17.6923L17.8091 0.769242C18.2337 0.344625 18.9229 0.344626 19.3476 0.769242C19.7722 1.19386 19.7722 1.88308 19.3476 2.3077Z" fill="#222020"/>
</svg>
