<svg width="139" height="40" viewBox="0 0 139 40" fill="none" xmlns="http://www.w3.org/2000/svg">
<path d="M133.657 40H5.62818C2.81282 40 0.507019 37.7487 0.507019 35V5C0.507019 2.25125 2.81282 2.11397e-06 5.62818 2.11397e-06H133.657C136.472 2.11397e-06 138.778 2.25125 138.778 5V35C138.778 37.7487 136.472 40 133.657 40Z" fill="black"/>
<path d="M133.657 0.801252C136.028 0.801252 137.958 2.685 137.958 5V35C137.958 37.315 136.028 39.1988 133.657 39.1988H5.62818C3.25708 39.1988 1.32768 37.315 1.32768 35V5C1.32768 2.685 3.25708 0.801252 5.62818 0.801252H133.657ZM133.657 2.11397e-06H5.62818C2.81282 2.11397e-06 0.507019 2.25125 0.507019 5V35C0.507019 37.7487 2.81282 40 5.62818 40H133.657C136.472 40 138.778 37.7487 138.778 35V5C138.778 2.25125 136.472 2.11397e-06 133.657 2.11397e-06Z" fill="#A6A6A6"/>
<path d="M49.0735 10.2437C49.0735 11.0787 48.8175 11.7475 48.313 12.2462C47.7331 12.8375 46.9777 13.135 46.0521 13.135C45.1674 13.135 44.412 12.8325 43.7923 12.2362C43.1714 11.6312 42.8616 10.8887 42.8616 9.99999C42.8616 9.11124 43.1714 8.36874 43.7923 7.76874C44.412 7.16749 45.1674 6.86499 46.0521 6.86499C46.4925 6.86499 46.9124 6.95374 47.3131 7.11874C47.7126 7.28499 48.0378 7.50999 48.2734 7.78749L47.7382 8.31499C47.3272 7.84124 46.7677 7.60749 46.0521 7.60749C45.4068 7.60749 44.8473 7.82749 44.3723 8.27124C43.9024 8.71624 43.6669 9.29249 43.6669 9.99999C43.6669 10.7075 43.9024 11.2887 44.3723 11.7337C44.8473 12.1725 45.4068 12.3975 46.0521 12.3975C46.737 12.3975 47.3131 12.1725 47.7676 11.7287C48.0672 11.435 48.2375 11.03 48.2823 10.5125H46.0521V9.78999H49.0274C49.0633 9.94624 49.0735 10.0975 49.0735 10.2437Z" fill="white" stroke="white" stroke-width="0.16" stroke-miterlimit="10"/>
<path d="M53.794 7.73894H50.9991V9.63894H53.5187V10.3614H50.9991V12.2614H53.794V12.9977H50.2079V7.00269H53.794V7.73894Z" fill="white" stroke="white" stroke-width="0.16" stroke-miterlimit="10"/>
<path d="M57.1252 12.9977H56.3339V7.73894H54.6196V7.00269H58.8407V7.73894H57.1252V12.9977Z" fill="white" stroke="white" stroke-width="0.16" stroke-miterlimit="10"/>
<path d="M61.8956 12.9977V7.00269H62.6856V12.9977H61.8956Z" fill="white" stroke="white" stroke-width="0.16" stroke-miterlimit="10"/>
<path d="M66.1872 12.9977H65.4023V7.73894H63.6816V7.00269H67.9079V7.73894H66.1872V12.9977Z" fill="white" stroke="white" stroke-width="0.16" stroke-miterlimit="10"/>
<path d="M75.8993 12.2262C75.2938 12.8325 74.5435 13.135 73.6486 13.135C72.7485 13.135 71.9983 12.8325 71.3927 12.2262C70.7884 11.6212 70.4875 10.8787 70.4875 9.99999C70.4875 9.12124 70.7884 8.37874 71.3927 7.77374C71.9983 7.16749 72.7485 6.86499 73.6486 6.86499C74.5384 6.86499 75.2886 7.16749 75.8942 7.77874C76.5036 8.38874 76.8045 9.12624 76.8045 9.99999C76.8045 10.8787 76.5036 11.6212 75.8993 12.2262ZM71.9778 11.7237C72.4336 12.1725 72.988 12.3975 73.6486 12.3975C74.3041 12.3975 74.8636 12.1725 75.3142 11.7237C75.7687 11.275 75.9992 10.6987 75.9992 9.99999C75.9992 9.30124 75.7687 8.72499 75.3142 8.27624C74.8636 7.82749 74.3041 7.60249 73.6486 7.60249C72.988 7.60249 72.4336 7.82749 71.9778 8.27624C71.5233 8.72499 71.2929 9.30124 71.2929 9.99999C71.2929 10.6987 71.5233 11.275 71.9778 11.7237Z" fill="white" stroke="white" stroke-width="0.16" stroke-miterlimit="10"/>
<path d="M77.9146 12.9977V7.00269H78.8748L81.8604 11.6652H81.895L81.8604 10.5127V7.00269H82.6503V12.9977H81.8258L78.6994 8.10519H78.6648L78.6994 9.26268V12.9977H77.9146Z" fill="white" stroke="white" stroke-width="0.16" stroke-miterlimit="10"/>
<path d="M70.293 21.7526C67.8874 21.7526 65.9221 23.5401 65.9221 26.0064C65.9221 28.4526 67.8874 30.2589 70.293 30.2589C72.7038 30.2589 74.6691 28.4526 74.6691 26.0064C74.6691 23.5401 72.7038 21.7526 70.293 21.7526ZM70.293 28.5839C68.9731 28.5839 67.8374 27.5201 67.8374 26.0064C67.8374 24.4726 68.9731 23.4276 70.293 23.4276C71.613 23.4276 72.7538 24.4726 72.7538 26.0064C72.7538 27.5201 71.613 28.5839 70.293 28.5839ZM60.7562 21.7526C58.3454 21.7526 56.3853 23.5401 56.3853 26.0064C56.3853 28.4526 58.3454 30.2589 60.7562 30.2589C63.1657 30.2589 65.1271 28.4526 65.1271 26.0064C65.1271 23.5401 63.1657 21.7526 60.7562 21.7526ZM60.7562 28.5839C59.4349 28.5839 58.2955 27.5201 58.2955 26.0064C58.2955 24.4726 59.4349 23.4276 60.7562 23.4276C62.0761 23.4276 63.2118 24.4726 63.2118 26.0064C63.2118 27.5201 62.0761 28.5839 60.7562 28.5839ZM49.4077 23.0564V24.8639H53.8285C53.6992 25.8739 53.3535 26.6164 52.8235 27.1339C52.1782 27.7589 51.1732 28.4526 49.4077 28.4526C46.6871 28.4526 44.5567 26.3089 44.5567 23.6526C44.5567 20.9964 46.6871 18.8526 49.4077 18.8526C50.8787 18.8526 51.9491 19.4139 52.739 20.1414L54.0436 18.8676C52.9387 17.8376 51.469 17.0464 49.4077 17.0464C45.6769 17.0464 42.5415 20.0101 42.5415 23.6526C42.5415 27.2951 45.6769 30.2589 49.4077 30.2589C51.4241 30.2589 52.9387 29.6139 54.1294 28.4039C55.3495 27.2126 55.7298 25.5376 55.7298 24.1851C55.7298 23.7651 55.6939 23.3789 55.6299 23.0564H49.4077ZM95.813 24.4576C95.4533 23.5064 94.3433 21.7526 92.0823 21.7526C89.8418 21.7526 87.9764 23.4764 87.9764 26.0064C87.9764 28.3889 89.8226 30.2589 92.2974 30.2589C94.2985 30.2589 95.4533 29.0676 95.9283 28.3739L94.4431 27.4076C93.9477 28.1151 93.2729 28.5839 92.2974 28.5839C91.3282 28.5839 90.633 28.1501 90.1874 27.2951L96.014 24.9414L95.813 24.4576ZM89.8725 25.8739C89.8226 24.2339 91.1771 23.3939 92.1476 23.3939C92.9081 23.3939 93.5533 23.7651 93.7684 24.2964L89.8725 25.8739ZM85.1367 30.0001H87.052V17.5001H85.1367V30.0001ZM82 22.7001H81.936C81.5058 22.2026 80.6851 21.7526 79.6456 21.7526C77.4639 21.7526 75.4692 23.6226 75.4692 26.0201C75.4692 28.4039 77.4639 30.2589 79.6456 30.2589C80.6851 30.2589 81.5058 29.8051 81.936 29.2926H82V29.9026C82 31.5289 81.1102 32.4026 79.675 32.4026C78.5048 32.4026 77.7789 31.5776 77.4793 30.8839L75.8136 31.5626C76.2938 32.6901 77.5651 34.0776 79.675 34.0776C81.9206 34.0776 83.8154 32.7876 83.8154 29.6489V22.0114H82V22.7001ZM79.8094 28.5839C78.4894 28.5839 77.3846 27.5051 77.3846 26.0201C77.3846 24.5214 78.4894 23.4276 79.8094 23.4276C81.1102 23.4276 82.1357 24.5214 82.1357 26.0201C82.1357 27.5051 81.1102 28.5839 79.8094 28.5839ZM104.78 17.5001H100.199V30.0001H102.109V25.2639H104.78C106.902 25.2639 108.982 23.7651 108.982 21.3814C108.982 18.9989 106.896 17.5001 104.78 17.5001ZM104.83 23.5251H102.109V19.2389H104.83C106.256 19.2389 107.071 20.3951 107.071 21.3814C107.071 22.3489 106.256 23.5251 104.83 23.5251ZM116.638 21.7289C115.258 21.7289 113.823 22.3239 113.233 23.6426L114.928 24.3364C115.293 23.6426 115.963 23.4176 116.673 23.4176C117.664 23.4176 118.669 23.9989 118.684 25.0251V25.1564C118.338 24.9614 117.598 24.6726 116.688 24.6726C114.862 24.6726 113.002 25.6539 113.002 27.4851C113.002 29.1601 114.498 30.2389 116.179 30.2389C117.464 30.2389 118.173 29.6726 118.619 29.0139H118.684V29.9801H120.529V25.1851C120.529 22.9689 118.834 21.7289 116.638 21.7289ZM116.408 28.5789C115.783 28.5789 114.912 28.2764 114.912 27.5201C114.912 26.5526 115.998 26.1814 116.938 26.1814C117.779 26.1814 118.173 26.3626 118.684 26.6014C118.534 27.7589 117.514 28.5789 116.408 28.5789ZM127.251 22.0026L125.055 27.4214H124.99L122.72 22.0026H120.66L124.07 29.5751L122.124 33.7889H124.12L129.376 22.0026H127.251ZM110.032 30.0001H111.947V17.5001H110.032V30.0001Z" fill="white"/>
<path d="M11.1949 7.53893C10.894 7.84643 10.7199 8.32518 10.7199 8.94518V31.0602C10.7199 31.6802 10.894 32.1589 11.1949 32.4664L11.2692 32.5339L23.9619 20.1464V19.8539L11.2692 7.46643L11.1949 7.53893Z" fill="url(#paint0_linear)"/>
<path d="M28.1881 24.2776L23.9619 20.1463V19.8538L28.1933 15.7226L28.288 15.7763L33.2991 18.5601C34.7291 19.3501 34.7291 20.6501 33.2991 21.4451L28.288 24.2238L28.1881 24.2776Z" fill="url(#paint1_linear)"/>
<path d="M28.288 24.224L23.9619 20.0002L11.1948 32.4665C11.6698 32.954 12.4444 33.0127 13.3252 32.5252L28.288 24.224Z" fill="url(#paint2_linear)"/>
<path d="M28.288 15.7763L13.3252 7.475C12.4444 6.9925 11.6698 7.05125 11.1948 7.53875L23.9619 20L28.288 15.7763Z" fill="url(#paint3_linear)"/>
<defs>
<linearGradient id="paint0_linear" x1="22.835" y1="31.2905" x2="6.05738" y2="14.1064" gradientUnits="userSpaceOnUse">
<stop stop-color="#00A0FF"/>
<stop offset="0.0066" stop-color="#00A1FF"/>
<stop offset="0.2601" stop-color="#00BEFF"/>
<stop offset="0.5122" stop-color="#00D2FF"/>
<stop offset="0.7604" stop-color="#00DFFF"/>
<stop offset="1" stop-color="#00E3FF"/>
</linearGradient>
<linearGradient id="paint1_linear" x1="35.1613" y1="19.9987" x2="10.378" y2="19.9987" gradientUnits="userSpaceOnUse">
<stop stop-color="#FFE000"/>
<stop offset="0.4087" stop-color="#FFBD00"/>
<stop offset="0.7754" stop-color="#FFA500"/>
<stop offset="1" stop-color="#FF9C00"/>
</linearGradient>
<linearGradient id="paint2_linear" x1="25.9356" y1="17.7041" x2="3.18378" y2="-5.59896" gradientUnits="userSpaceOnUse">
<stop stop-color="#FF3A44"/>
<stop offset="1" stop-color="#C31162"/>
</linearGradient>
<linearGradient id="paint3_linear" x1="7.98109" y1="39.8238" x2="18.1408" y2="29.418" gradientUnits="userSpaceOnUse">
<stop stop-color="#32A071"/>
<stop offset="0.0685" stop-color="#2DA771"/>
<stop offset="0.4762" stop-color="#15CF74"/>
<stop offset="0.8009" stop-color="#06E775"/>
<stop offset="1" stop-color="#00F076"/>
</linearGradient>
</defs>
</svg>
