<svg width="20" height="24" viewBox="0 0 20 24" fill="none" xmlns="http://www.w3.org/2000/svg">
<path d="M10.1444 8.55856C8.82385 7.02977 7.52051 5.50097 6.20857 3.96551C5.26534 2.86398 4.33067 1.74911 3.39601 0.640905C3.10447 0.260376 2.68433 0.0467316 2.13555 0C1.21804 0 0.686397 0.807774 0.412004 1.36188C0.129036 1.99609 -0.00819658 2.65033 0.000378209 3.3246C0.000378209 4.23921 0.214765 5.22726 0.875024 6.00834C2.46136 7.88428 4.05629 9.76021 5.66835 11.6295C5.76268 11.7363 5.85696 11.8498 5.95129 11.9566C5.69404 12.1702 5.43683 12.3772 5.17959 12.5975C4.6308 13.0648 4.06483 13.5254 3.53319 14.0061C2.83005 14.6537 2.09264 15.2812 1.51813 16.0022C1.14942 16.4629 0.917891 16.9569 0.814994 17.491C0.617774 18.3789 0.669229 19.3936 1.08939 20.2481C1.26946 20.6887 1.58673 21.0559 2.04977 21.3363C2.7872 21.6768 3.35313 21.363 3.81617 20.9024C4.08199 20.642 4.36499 20.395 4.65654 20.1547C6.31147 18.8261 7.99211 17.5177 9.67277 16.2092C11.5249 18.2187 13.3856 20.2148 15.3407 22.1708C15.7694 22.5981 16.2325 23.012 16.7041 23.4125C16.9699 23.7597 17.3472 23.9533 17.8531 24C18.6934 24 19.1736 23.2657 19.4223 22.7583C19.6795 22.1775 19.8082 21.5833 19.7996 20.9691C19.7996 20.168 19.6281 19.1933 19.0021 18.519C17.27 16.6765 15.6151 14.7805 13.9516 12.8912C15.315 11.8364 16.687 10.7816 18.0418 9.72684C18.5477 9.41308 18.8906 9.01918 19.0879 8.53851C19.5423 7.61055 19.611 6.50235 19.388 5.53434C19.2765 4.94685 19.0279 4.4061 18.6249 3.90541C18.4276 3.75186 18.239 3.59166 18.0418 3.43144C17.8188 3.31795 17.5959 3.26454 17.3729 3.26454C17.15 3.26454 16.9271 3.31795 16.7041 3.43144C14.5175 5.14716 12.3138 6.83616 10.1444 8.55856Z" fill="#222020"/>
</svg>
