<svg width="15" height="23" viewBox="0 0 15 23" fill="none" xmlns="http://www.w3.org/2000/svg">
<path d="M1.4609 9.47003C0.800899 10.84 0.340903 12.3 0.120903 13.8C-0.0890975 15.3 -0.0190938 16.85 0.280906 18.33C0.450906 19.15 0.700892 19.99 1.14089 20.71C1.50089 21.3 1.99091 21.81 2.53091 22.23C2.96091 22.57 3.5609 22.7 4.0909 22.78C4.7309 22.88 5.41091 22.73 6.03091 22.57C7.39091 22.22 8.57089 21.46 9.64089 20.57C10.6009 19.77 11.4309 18.78 12.1109 17.73C12.4809 17.16 12.7709 16.54 13.0709 15.93C13.4509 15.17 13.6609 14.37 13.8709 13.55C14.2809 11.97 14.3309 10.32 14.1509 8.70001C13.9709 7.06001 13.3609 5.58 12.6009 4.13C12.0009 3 11.0609 2.08002 9.95089 1.46002C9.07089 0.970022 8.04088 0.73999 7.07088 0.48999C6.03088 0.21999 4.99088 0.05 3.91088 0C3.51088 0.05 3.21089 0.240027 3.01089 0.590027C2.52089 1.26003 2.38088 2.25 2.38088 3.06C2.37088 3.68 2.4709 4.27999 2.6809 4.87C2.8509 5.29999 3.09089 5.78 3.51089 6C3.47089 6.05 3.4309 6.10002 3.4009 6.15002C2.6309 7.18002 2.0209 8.31003 1.4609 9.47003ZM5.94088 8.72003C6.43088 8.24003 6.9409 7.8 7.4909 7.38C7.6409 7.27 7.79088 7.15999 7.94088 7.04999C8.29088 7.17999 8.6309 7.32 8.9609 7.5C9.3809 7.72 9.7509 7.98999 10.0909 8.29999C10.3909 8.67999 10.6509 9.06999 10.8809 9.48999C10.9909 9.73999 11.0909 9.99 11.1809 10.25C11.1909 10.31 11.2009 10.37 11.2109 10.43C11.2109 10.55 11.2109 10.66 11.2109 10.78C11.1809 10.96 11.1509 11.14 11.1209 11.32C10.9709 11.78 10.8009 12.23 10.6009 12.67C10.1309 13.51 9.58088 14.28 8.94088 14.99C8.01088 15.9 6.95089 16.67 5.73089 17.15C5.04089 17.34 4.3609 17.44 3.6509 17.32C3.3709 17.19 3.1309 17.02 2.9009 16.82C2.8309 16.73 2.77088 16.65 2.72088 16.56C2.69088 16.47 2.6509 16.38 2.6209 16.29C2.5809 16.08 2.54089 15.87 2.51089 15.66C2.51089 15.47 2.51089 15.29 2.51089 15.1C2.55089 14.85 2.5909 14.6 2.6509 14.35C2.8609 13.65 3.1209 12.98 3.4309 12.32C4.1409 11.02 4.95088 9.81003 5.94088 8.72003Z" fill="#161616"/>
</svg>
